<?xml version="1.0" encoding="UTF-8"?>
<svg id="Layer_2" xmlns="http://www.w3.org/2000/svg" viewBox="0 0 154.13 60.73">
  <g id="Layer_3">
    <polygon points="17.9 60.21 17.9 26.27 30.3 35.28 30.3 60.21 17.9 60.21"/>
    <polygon points="0 60.17 0 .52 12.49 12.75 12.49 60.17 0 60.17"/>
    <polygon points="0 .52 62.47 59.69 0 17.29 0 .52"/>
    <polygon points="93.98 60.13 81.57 60.07 81.56 .55 93.98 .66 93.98 47.66 93.98 60.13"/>
    <polygon points="93.98 .66 56.09 38.56 17.99 .46 34.74 .46 55.92 21.64 77.06 .49 93.98 .66"/>
    <polygon points="154.01 60.73 99.48 6.2 99.48 18.69 141.49 60.7 154.01 60.73"/>
    <polygon points="81.57 60.07 141.64 0 154.13 0 94.1 60.03 81.57 60.07"/>
  </g>
</svg>